
<svg xmlns="http://www.w3.org/2000/svg" width="55" height="58" viewBox="0 0 55 58" fill="none">
  <path d="M43.5699 57.9982C43.5718 47.8708 43.5718 37.7454 43.5776 27.618C43.5776 25.1417 45.0194 23.0869 47.3018 22.2653C50.8274 20.9972 54.6781 23.5547 54.7286 27.2797C54.7909 31.8804 54.7539 36.4811 54.7539 41.0838C54.7539 46.7226 54.7462 52.3594 54.7403 57.9982H43.5699ZM51.3256 54.5728C51.3256 54.308 51.3256 54.0857 51.3256 53.8634C51.3256 46.2064 51.3256 38.5476 51.3256 30.8907C51.3256 29.7598 51.3392 28.6271 51.3217 27.4962C51.3003 26.2455 50.3293 25.3447 49.0743 25.3776C47.8427 25.4104 47.0138 26.3808 47.0138 27.8074C47.0119 36.5411 47.0138 45.2728 47.0138 54.0064C47.0138 54.1881 47.0313 54.3718 47.043 54.5728H51.3275H51.3256Z" fill="#EEE8DC"/>
  <path d="M14.5045 57.9982C14.5181 57.7546 14.5415 57.5111 14.5415 57.2675C14.5434 48.9843 14.5454 40.6991 14.5415 32.4159C14.5415 30.0459 15.4793 28.1941 17.6333 27.0922C21.4391 25.1456 25.7489 27.9157 25.7567 32.2999C25.7684 39.1314 25.7567 45.9629 25.7606 52.7924C25.7606 54.5283 25.7781 56.2623 25.7878 57.9982H14.5026H14.5045ZM22.2875 54.567C22.2875 54.3273 22.2875 54.1417 22.2875 53.9542C22.2875 46.769 22.2875 39.5837 22.2875 32.3966C22.2875 32.1897 22.2875 31.9809 22.2699 31.7741C22.1843 30.8018 21.3399 29.9821 20.3631 29.9126C19.0536 29.8178 18.0244 30.7264 18.0224 32.0331C18.0127 39.4272 18.0166 46.8192 18.0185 54.2132C18.0185 54.3215 18.038 54.4298 18.0497 54.567H22.2875Z" fill="#EEE8DC"/>
  <path d="M29.2084 57.9982C29.1929 57.8107 29.1656 57.6251 29.1656 57.4376C29.1637 52.1951 29.1598 46.9526 29.1656 41.7101C29.1695 39.1507 30.4362 37.1539 32.5959 36.2685C36.3532 34.7278 40.3419 37.4206 40.3575 41.5342C40.3769 46.796 40.3614 52.0579 40.3633 57.3197C40.3633 57.5459 40.373 57.772 40.3789 57.9982H29.2084ZM36.8629 54.5767C36.8785 54.395 36.8999 54.2654 36.8999 54.1359C36.8999 49.947 36.9038 45.7599 36.896 41.5709C36.896 41.2732 36.8629 40.962 36.7676 40.6837C36.4251 39.6688 35.425 39.1217 34.3218 39.3092C33.3645 39.4735 32.6232 40.3415 32.6212 41.3602C32.6135 45.6439 32.6173 49.9257 32.6193 54.2094C32.6193 54.3331 32.6563 54.4549 32.6757 54.5767H36.8649H36.8629Z" fill="#EEE8DC"/>
  <path d="M0.143083 57.9982C0.143083 54.2268 0.143083 50.4573 0.146975 46.6859C0.150866 43.6103 2.15692 41.3428 5.22339 40.9466C8.2276 40.558 11.2707 43.1406 11.2999 46.1775C11.3388 50.1171 11.3116 54.0586 11.3135 57.9982H0.143083ZM7.8832 54.5767C7.8832 51.7795 7.92406 49.0287 7.86375 46.2799C7.8404 45.1839 6.90645 44.4087 5.82851 44.3642C4.52876 44.3101 3.57925 45.2612 3.57341 46.6588C3.56368 49.1486 3.56952 51.6403 3.57341 54.1301C3.57341 54.2732 3.60065 54.4182 3.61816 54.5767H7.8832Z" fill="#EEE8DC"/>
  <path d="M31.6231 12.712C33.4307 11.6566 35.3005 11.4401 37.1743 12.368C37.8319 12.6947 38.2094 12.6096 38.7464 12.1843C40.3497 10.9162 41.9997 9.70418 43.6477 8.49601C43.9979 8.23891 44.0427 8.02434 43.9045 7.61453C43.1632 5.42242 43.5601 3.42362 45.1848 1.76311C46.8076 0.100664 48.8253 -0.396136 51.0356 0.315235C53.2479 1.02661 54.5924 2.61946 54.9252 4.90049C55.2404 7.05974 54.4874 8.89809 52.7168 10.2222C50.952 11.5425 48.9946 11.7455 46.9691 10.8814C46.5449 10.6997 46.3056 10.7616 45.9729 11.0167C44.1672 12.397 42.3518 13.7617 40.5229 15.111C40.194 15.3526 40.1415 15.5595 40.2505 15.9519C41.1299 19.0835 39.2328 22.275 36.0827 23.0095C32.917 23.748 29.7746 21.7472 29.1423 18.5693C28.9282 17.4945 29.0314 16.4313 29.4516 15.3662C28.1149 14.2798 26.7821 13.1934 25.4473 12.1089C24.8889 11.6547 24.3402 11.1888 23.7643 10.7577C23.6358 10.6611 23.3654 10.6069 23.2409 10.6765C21.2543 11.7977 19.2716 11.761 17.2305 10.6765C14.8742 13.1373 12.5102 15.6078 10.113 18.1111C10.2142 18.2619 10.2998 18.3992 10.3951 18.5325C11.761 20.4733 11.8019 23.0173 10.4963 24.9658C9.20046 26.9008 6.78776 27.879 4.54238 27.3841C2.20556 26.868 0.436889 24.9987 0.0671995 22.6577C-0.514574 18.9636 2.76982 15.6523 6.48617 16.209C6.94925 16.2786 7.24695 16.1703 7.568 15.8301C9.89509 13.3693 12.2416 10.924 14.594 8.48828C14.8742 8.19832 14.9482 7.97408 14.8217 7.56427C14.1309 5.32577 14.6252 3.32697 16.3257 1.71865C18.0224 0.106463 20.0829 -0.307215 22.2738 0.529807C24.4122 1.34556 25.6711 2.96162 25.8968 5.25231C25.9668 5.96562 25.782 6.70212 25.7314 7.43089C25.7178 7.6126 25.7042 7.88323 25.8092 7.97022C27.7336 9.56307 29.6773 11.1327 31.6211 12.712H31.6231ZM49.2242 7.96055C50.4889 7.97988 51.5279 6.99401 51.5532 5.74911C51.5785 4.51581 50.5667 3.46422 49.3195 3.42942C48.0937 3.39462 47.0177 4.42302 46.9885 5.65439C46.9593 6.89156 47.9789 7.94315 49.2242 7.96055ZM32.4948 17.4404C32.4811 18.7143 33.456 19.7233 34.7129 19.7368C35.9796 19.7523 37.0011 18.778 37.0361 17.5235C37.0692 16.3018 36.0457 15.2444 34.7966 15.2096C33.5552 15.1767 32.5064 16.1916 32.4948 17.4384V17.4404ZM22.5034 5.85543C22.5151 4.58927 21.5383 3.57827 20.2756 3.5512C19.0459 3.52414 17.9874 4.54674 17.9601 5.78777C17.9329 7.02301 18.9564 8.06494 20.2055 8.07653C21.4839 8.08813 22.4918 7.11386 22.5015 5.85736L22.5034 5.85543ZM5.6962 24.0669C6.96093 24.0785 7.99216 23.0907 8.00968 21.8497C8.02719 20.6106 7.01152 19.588 5.75457 19.5745C4.48985 19.5609 3.46056 20.5507 3.44694 21.7936C3.43332 23.0443 4.43537 24.0553 5.69815 24.0689L5.6962 24.0669Z" fill="#EEE8DC"/>
</svg>