<svg width="15" height="18" viewBox="0 0 15 18" fill="none" xmlns="http://www.w3.org/2000/svg">
<path id="Subtract" fill-rule="evenodd" clip-rule="evenodd" d="M7.28941 13.7441C5.66161 13.7441 4.05786 13.2191 2.7739 12.2662C1.48032 11.3063 0.564238 9.94807 0.193957 8.44207C0.139109 8.21915 0.0988148 7.98754 0.0595954 7.76211L0.0569047 7.74664L0.0529857 7.72425L0.0529835 7.72424C0.035849 7.62631 0.0186163 7.52782 0 7.42999V6.33761C0.00728407 6.29306 0.0143391 6.2483 0.0214099 6.20343L0.0214119 6.20342C0.0275667 6.16437 0.0337334 6.12524 0.0400737 6.08611C0.0681253 5.90354 0.0977799 5.71491 0.135449 5.53234C0.798268 2.32642 3.803 0 7.27739 0C7.6629 0 8.05321 0.0295442 8.43632 0.0871175C11.3609 0.527251 13.6876 2.5605 14.364 5.26644C14.4225 5.50084 14.4651 5.74528 14.5064 5.98301L14.5065 5.98303L14.5099 6.00278L14.5099 6.00279L14.5099 6.0028L14.5099 6.00281L14.5099 6.00282L14.5099 6.00283L14.5099 6.00285L14.5099 6.00286L14.5099 6.00287C14.5291 6.11495 14.5484 6.22704 14.57 6.33913V7.42923C14.55 7.53237 14.5313 7.63616 14.5127 7.73939L14.5127 7.73952L14.5083 7.76407L14.5081 7.76487L14.5081 7.76488C14.4649 8.00705 14.4201 8.25826 14.36 8.49888C13.7092 11.1238 11.3617 13.1919 8.51887 13.6464C8.11172 13.7115 7.69896 13.7441 7.28941 13.7441ZM7.2846 18C6.97683 18 6.77005 17.7841 6.76925 17.4629V16.4622V15.8918L6.633 15.8728C6.53928 15.8598 6.44556 15.8473 6.35259 15.8349L6.27394 15.8243C6.01506 15.7902 5.77142 15.7577 5.52536 15.716C4.11317 15.4743 2.79394 14.9319 1.60455 14.1032C1.4667 14.007 1.37854 13.879 1.3569 13.7426C1.33766 13.6199 1.37132 13.4972 1.45628 13.3896C1.55486 13.2631 1.69832 13.1934 1.85942 13.1934C1.97884 13.1934 2.09986 13.2328 2.20726 13.307C3.22593 14.0108 4.32395 14.4812 5.47166 14.7054C6.10723 14.8297 6.73959 14.8926 7.34952 14.8926C9.07349 14.8926 10.7117 14.3903 12.2193 13.4002L12.2529 13.3775C12.406 13.276 12.5383 13.1888 12.6913 13.1888C12.717 13.1888 12.7434 13.1911 12.7691 13.1964C13.0079 13.2396 13.149 13.36 13.2003 13.5646C13.254 13.7782 13.1834 13.9502 12.9847 14.0903C12.2153 14.6312 11.3753 15.0562 10.4881 15.3531C9.70265 15.616 8.9148 15.7781 8.14538 15.8334C8.09569 15.8372 8.0492 15.8448 8.00112 15.8539C7.98028 15.8577 7.95864 15.8615 7.9362 15.8652L7.80155 15.8865V16.4592V17.4599C7.80155 17.7818 7.59397 17.9985 7.287 17.9992L7.2846 18ZM8.78647 4.15216C8.33525 4.14747 7.96503 3.77662 7.97852 3.34192C7.99202 2.8969 8.35743 2.56361 8.82311 2.57206C9.26758 2.57957 9.62238 2.93352 9.61852 3.3654C9.61467 3.80572 9.24154 4.15686 8.78647 4.15216ZM11.0956 6.38478C10.6395 6.38384 10.2934 6.04773 10.2915 5.60365C10.2886 5.15581 10.653 4.7981 11.1091 4.80279C11.5507 4.80655 11.918 5.16332 11.9218 5.59144C11.9257 6.0327 11.5574 6.38572 11.0956 6.38478ZM10.7099 9.00045C11.1756 9.00327 11.5285 8.65965 11.5266 8.2043C11.5246 7.76115 11.1775 7.42222 10.7234 7.42035C10.2626 7.41847 9.89427 7.77336 9.89812 8.21556C9.90198 8.64932 10.2626 8.99764 10.7099 9.00045ZM5.29918 3.74C5.29532 3.29404 5.66459 2.9307 6.11677 2.9354C6.55642 2.94009 6.92761 3.29968 6.93243 3.72592C6.93725 4.16061 6.55353 4.53334 6.1052 4.53053C5.65881 4.52677 5.30304 4.17751 5.29918 3.74ZM8.39985 5.18397C7.94478 5.19055 7.60251 5.53041 7.60347 5.9745C7.60444 6.41013 7.95924 6.76314 8.40371 6.76971C8.85492 6.77629 9.22901 6.41388 9.22901 5.97074C9.22901 5.52384 8.8636 5.1774 8.39985 5.18397Z" fill="#B69056"/>
</svg>
