<svg width="20" height="19" viewBox="0 0 20 19" fill="none" xmlns="http://www.w3.org/2000/svg">
<g id="Vector">
<path d="M11.047 1.04708C11.3956 1.11557 11.7458 1.17684 12.0917 1.25665C12.3645 1.31943 12.6331 1.40074 12.8992 1.48712C12.9586 1.50645 13.0179 1.578 13.0454 1.63923C13.3785 2.36795 13.5691 3.13802 13.6823 3.92735C13.8132 4.8358 13.9209 5.747 14.0592 6.65382C14.2429 7.85799 14.7195 8.95173 15.361 9.97834C15.4988 10.1989 15.5009 10.199 15.3228 10.3948C15.062 10.6796 14.7992 10.9621 14.5218 11.2615C14.4722 11.1854 14.4339 11.1287 14.3978 11.0711C13.3122 9.30475 12.0844 7.64349 10.6647 6.13126C9.5272 4.91949 8.30668 3.80079 6.83602 2.99674C6.3926 2.75424 5.91518 2.57232 5.45196 2.36307C5.42146 2.3497 5.3898 2.33834 5.32249 2.31226C5.56453 2.1799 5.77355 2.05804 5.99012 1.94917C6.97169 1.45607 8.01205 1.16087 9.10289 1.04634C9.43497 1.01145 9.76832 1.00693 10.0994 0.98868C10.4156 1.00817 10.7308 1.02759 11.047 1.04708Z" fill="#B69056"/>
<path d="M1.03671 9.16972C1.71321 9.45897 2.37324 9.79525 3.06783 10.0282C4.83955 10.6231 6.62553 11.1729 8.40626 11.7401C9.18043 11.9863 9.95836 12.2222 10.6695 12.6275C11.0235 12.8289 11.3336 13.0841 11.5749 13.4552C11.3665 13.5499 11.1695 13.6464 10.9668 13.7321C9.5044 14.3533 7.97433 14.7165 6.4026 14.9257C5.18771 15.0879 3.9691 15.158 2.74424 15.1264C2.63372 15.1238 2.56908 15.0884 2.50601 14.9937C1.69702 13.7708 1.21595 12.4282 1.0498 10.9734C1.01169 10.6431 1.0051 10.3094 0.984864 9.97708L1.03463 9.1696L1.03671 9.16972Z" fill="#B69056"/>
<path d="M13.8566 11.9235C13.3626 12.2994 12.8785 12.6665 12.4666 12.9795C12.2397 12.765 12.0454 12.5796 11.8478 12.3972C11.1931 11.7886 10.3914 11.4467 9.5601 11.1793C7.79816 10.6121 6.02584 10.0778 4.26409 9.50754C3.26396 9.18373 2.27926 8.81282 1.35068 8.31063C1.29911 8.28342 1.24857 8.25628 1.16058 8.21013C1.28161 7.805 1.38845 7.39273 1.52899 6.99298C2.0797 5.4267 3.01 4.12197 4.28537 3.06308C4.32935 3.02714 4.41359 3.01562 4.47243 3.02656C5.45327 3.22279 6.32122 3.67529 7.13674 4.23319C8.89096 5.43388 10.3129 6.97758 11.6147 8.64027C12.392 9.63242 13.1038 10.6707 13.7546 11.7501C13.7811 11.7946 13.8065 11.84 13.8555 11.9255L13.8566 11.9235Z" fill="#B69056"/>
<path d="M3.29996 16.037C6.31106 15.9876 9.19704 15.5794 11.9436 14.2832C11.9866 14.6191 12.0284 14.9402 12.0702 15.2604C12.1544 15.9111 11.8685 16.4324 11.4798 16.9119C10.9206 17.6003 10.2245 18.1371 9.51583 18.6575C9.05756 18.9948 9.05476 18.9894 8.49394 18.8901C6.75776 18.5825 5.23307 17.842 3.92811 16.6533C3.72546 16.4685 3.53619 16.2699 3.29996 16.037Z" fill="#B69056"/>
<path d="M16.1006 9.46406C15.4858 8.47774 15.0626 7.44996 14.9133 6.31476C14.7472 5.04586 14.6317 3.7686 14.3053 2.52638C14.2655 2.37457 14.2205 2.22451 14.1642 2.02049C14.4151 2.16653 14.6326 2.28124 14.8383 2.41509C16.2659 3.34287 17.3619 4.56671 18.1058 6.101C18.1364 6.16347 18.149 6.26452 18.1203 6.32334C17.56 7.43465 16.8782 8.4685 16.1016 9.46516L16.1006 9.46406Z" fill="#B69056"/>
<path d="M14.3274 12.7213C14.5338 13.1508 14.7588 13.5992 14.9657 14.0548C15.3886 14.9865 15.4929 15.9873 15.5709 16.9917C15.5752 17.04 15.5302 17.1104 15.4864 17.1432C14.3183 18.0363 13.0146 18.6234 11.5626 18.8724C11.2481 18.9261 10.9307 18.9598 10.6003 18.9677C10.7256 18.8657 10.852 18.7638 10.9763 18.6608C11.4825 18.2407 11.9522 17.7861 12.3481 17.2579C12.8897 16.534 13.0782 15.7278 12.9262 14.8399C12.8764 14.5465 12.8087 14.2561 12.76 13.9627C12.7517 13.911 12.7789 13.825 12.8193 13.7961C13.3112 13.4389 13.8078 13.0893 14.3253 12.7222L14.3274 12.7213Z" fill="#B69056"/>
<path d="M14.976 12.074C15.3344 11.6981 15.6805 11.334 16.0064 10.9927C16.3957 11.3499 16.7491 11.7487 17.1737 12.0433C17.6112 12.3471 18.1663 12.303 18.6856 12.3308C18.4572 13.5451 17.3568 15.4754 16.3921 16.3226C16.3272 14.7487 15.7243 13.384 14.976 12.074Z" fill="#B69056"/>
<path d="M16.6474 10.2989C17.3258 9.3035 17.9755 8.3502 18.6195 7.4049C19.0115 8.70233 19.1062 10.0462 18.8833 11.4603C18.4915 11.4143 18.1106 11.3772 17.7329 11.3215C17.6408 11.3075 17.5399 11.2512 17.4741 11.1844C17.1854 10.8878 16.9089 10.5793 16.6474 10.2989Z" fill="#B69056"/>
</g>
</svg>
