<svg width="21" height="20" viewBox="0 0 21 20" fill="none" xmlns="http://www.w3.org/2000/svg">
<path id="Vector" d="M20.0016 10.704C20.0016 10.2353 20.0016 9.76664 20.0016 9.29747C19.9729 9.07305 19.9468 8.8476 19.9145 8.62371C19.6318 6.68541 18.8688 4.96108 17.5843 3.48048C16.0301 1.68988 14.0858 0.570947 11.7467 0.153957C11.403 0.0928964 11.0562 0.0506233 10.7104 0C10.2421 0 9.77322 0 9.30488 0C9.25534 0.0125254 9.20579 0.0318353 9.15572 0.0360104C7.66935 0.155001 6.28676 0.602261 4.99439 1.34334C1.41926 3.39385 -0.562056 7.59245 0.142018 11.6428C0.532648 13.8896 1.54756 15.8096 3.23212 17.3455C5.54982 19.4581 8.28998 20.2999 11.3942 19.9059C13.0537 19.6951 14.5667 19.073 15.9096 18.0699C18.0317 16.4855 19.3538 14.3911 19.843 11.7811C19.9098 11.4247 19.9494 11.063 20.0016 10.704ZM10.0095 13.6333C10.5952 13.6333 11.1808 13.6286 11.766 13.6385C11.8458 13.6401 11.9522 13.6944 11.9997 13.7586C12.443 14.353 12.8743 14.9563 13.3139 15.5534C13.3786 15.641 13.3916 15.7136 13.353 15.8169C13.036 16.6619 12.7215 17.5073 12.4148 18.3559C12.371 18.4775 12.3011 18.5271 12.1858 18.5558C10.7323 18.9164 9.27985 18.9164 7.82685 18.5553C7.70898 18.526 7.64379 18.4707 7.60103 18.3517C7.29384 17.5037 6.97935 16.6577 6.66174 15.8133C6.6221 15.7084 6.64036 15.6358 6.70398 15.5492C7.13894 14.9568 7.57234 14.3629 7.99844 13.7643C8.07249 13.6599 8.15125 13.6292 8.27276 13.6302C8.85167 13.6359 9.43057 13.6328 10.01 13.6328L10.0095 13.6333ZM10.5926 4.68709C10.5926 4.30977 10.5863 3.93192 10.5978 3.55511C10.5999 3.48153 10.6515 3.38237 10.712 3.34114C11.4646 2.82969 12.2208 2.3245 12.9822 1.82714C13.0485 1.78382 13.1695 1.77077 13.243 1.8C14.6506 2.35268 15.835 3.21693 16.7952 4.38544C16.8484 4.45068 16.8734 4.57802 16.8515 4.65995C16.6194 5.5242 16.3738 6.38532 16.136 7.248C16.1057 7.35812 16.0541 7.42023 15.9409 7.45572C15.2363 7.67752 14.5354 7.9108 13.8297 8.12948C13.7531 8.15348 13.6342 8.1373 13.57 8.09086C12.614 7.40562 11.6622 6.71359 10.7156 6.01582C10.652 5.96885 10.6014 5.86134 10.5988 5.77993C10.5863 5.41617 10.5936 5.05137 10.5936 4.68709H10.5926ZM9.42223 4.66674C9.42223 5.04406 9.42744 5.42139 9.41754 5.79872C9.41545 5.86917 9.37164 5.96259 9.31584 6.0033C8.36299 6.70367 7.40701 7.39935 6.4453 8.08773C6.37698 8.13678 6.25025 8.15192 6.16784 8.12635C5.46794 7.91028 4.77326 7.67804 4.07492 7.4578C3.96123 7.42179 3.91116 7.35604 3.88091 7.24748C3.64309 6.3848 3.39797 5.5242 3.16641 4.65995C3.1445 4.57802 3.16849 4.45068 3.22117 4.38596C4.17975 3.21641 5.36572 2.35372 6.77178 1.79843C6.84532 1.76973 6.96632 1.78382 7.03255 1.82766C7.79347 2.32554 8.54918 2.83073 9.30123 3.34166C9.36173 3.38289 9.41388 3.481 9.41649 3.55459C9.42797 3.92513 9.42171 4.2962 9.42171 4.66674H9.42223ZM15.8079 14.8718C15.8079 14.9057 15.8079 14.9401 15.8079 14.9741C15.373 14.9741 14.9375 14.9798 14.503 14.9688C14.4217 14.9668 14.3137 14.9182 14.2663 14.8551C13.824 14.2612 13.389 13.661 12.9609 13.0566C12.917 12.9951 12.8972 12.8834 12.9197 12.8119C13.28 11.6815 13.6477 10.5531 14.0201 9.42689C14.0404 9.36479 14.1041 9.2912 14.1635 9.27085C14.8822 9.02921 15.6035 8.79489 16.3263 8.5663C16.3884 8.54647 16.488 8.55899 16.5375 8.59813C17.2703 9.1696 17.9989 9.74681 18.7243 10.3277C18.7702 10.3642 18.8073 10.4456 18.8047 10.5036C18.7254 12.0348 18.2654 13.4449 17.4403 14.7345C17.3976 14.8018 17.2896 14.8634 17.2103 14.8655C16.743 14.8775 16.2757 14.8718 15.8079 14.8718ZM4.20061 14.9725C4.20061 14.9386 4.20061 14.9046 4.20061 14.8712C3.73957 14.8712 3.27801 14.8686 2.81698 14.8728C2.69129 14.8739 2.61879 14.8201 2.5536 14.7152C1.75617 13.4324 1.29357 12.0431 1.2169 10.5307C1.21325 10.4571 1.26019 10.3543 1.31756 10.3078C2.02163 9.74107 2.73092 9.18056 3.44491 8.62632C3.50801 8.57726 3.62796 8.55273 3.70307 8.57621C4.40245 8.79436 5.09713 9.02713 5.79442 9.2505C5.90864 9.28703 5.97644 9.34078 6.01504 9.46134C6.3702 10.574 6.73423 11.6841 7.08679 12.7973C7.1113 12.8745 7.09566 12.9935 7.04976 13.0587C6.62628 13.6589 6.18923 14.2502 5.76313 14.8488C5.68855 14.9537 5.60876 14.9782 5.4862 14.9756C5.05749 14.9668 4.62879 14.972 4.19957 14.972L4.20061 14.9725ZM8.22165 12.4565C7.8644 11.3553 7.50715 10.2577 7.15824 9.1576C7.14312 9.11063 7.19266 9.01512 7.24012 8.98016C8.12048 8.33301 9.00552 7.69265 9.88692 7.04708C9.9761 6.98184 10.0371 6.98288 10.1258 7.04812C11.0067 7.6937 11.8896 8.33771 12.7767 8.97442C12.8811 9.04957 12.879 9.11585 12.8445 9.21762C12.7408 9.52501 12.6438 9.83449 12.5431 10.1429C12.2922 10.9132 12.0414 11.6835 11.789 12.4565H8.22113H8.22165ZM6.20279 17.9603C5.21656 17.4781 4.39097 16.8748 3.62379 16.082C4.27571 16.1102 4.86974 16.1342 5.46325 16.1655C5.49976 16.1676 5.55191 16.2162 5.56599 16.2548C5.77461 16.8048 5.97801 17.357 6.20227 17.9603H6.20279ZM18.7416 8.83298C18.2383 8.4353 17.7705 8.06789 17.3068 7.69526C17.2771 7.67126 17.2594 7.6008 17.2703 7.56114C17.4262 6.99019 17.5879 6.42029 17.7611 5.80394C18.2769 6.76891 18.594 7.74745 18.741 8.83298H18.7416ZM16.3315 16.082C16.3378 16.0987 16.3441 16.1154 16.3503 16.1316C15.6222 16.8737 14.7977 17.4812 13.8167 17.9509C14.0363 17.3581 14.2365 16.8106 14.4451 16.2663C14.4629 16.2203 14.5317 16.1671 14.5792 16.164C15.1633 16.1316 15.7474 16.1076 16.3321 16.0815L16.3315 16.082ZM2.25528 5.80863C2.4253 6.40933 2.58646 6.96357 2.73457 7.52095C2.75074 7.58097 2.71267 7.68691 2.66312 7.72762C2.26623 8.0538 1.861 8.36902 1.45785 8.68738C1.40518 8.72913 1.35042 8.76775 1.2701 8.82672C1.42187 7.75163 1.73896 6.77204 2.25476 5.80811L2.25528 5.80863ZM8.41619 1.32612C9.49316 1.12885 10.518 1.13094 11.5934 1.32873C11.0604 1.68466 10.5707 2.01397 10.0762 2.33546C10.0387 2.35999 9.95367 2.34642 9.90987 2.31928C9.67361 2.17054 9.44309 2.01189 9.21101 1.85688C8.95911 1.68884 8.70773 1.52079 8.41619 1.32612Z" fill="#B69056"/>
</svg>
